<?xml version="1.0" encoding="UTF-8" standalone="no"?>
<!-- Created with Inkscape (http://www.inkscape.org/) -->
<svg xmlns:dc="http://purl.org/dc/elements/1.1/" xmlns:cc="http://creativecommons.org/ns#" xmlns:rdf="http://www.w3.org/1999/02/22-rdf-syntax-ns#" xmlns:svg="http://www.w3.org/2000/svg" xmlns="http://www.w3.org/2000/svg" xmlns:xlink="http://www.w3.org/1999/xlink" xmlns:sodipodi="http://sodipodi.sourceforge.net/DTD/sodipodi-0.dtd" xmlns:inkscape="http://www.inkscape.org/namespaces/inkscape" height="725.4043" id="svg1" inkscape:version="0.47 r22583" sodipodi:docname="Handshake_04_Man-Wonam.svg" sodipodi:version="0.32" width="1097.967" inkscape:output_extension="org.inkscape.output.svg.inkscape" version="1.1">
  <defs id="defs3">
    <linearGradient inkscape:collect="always" id="linearGradient4768">
      <stop style="stop-color:#ffffff;stop-opacity:1;" offset="0" id="stop4770"/>
      <stop style="stop-color:#ffffff;stop-opacity:0;" offset="1" id="stop4772"/>
    </linearGradient>
    <inkscape:perspective sodipodi:type="inkscape:persp3d" inkscape:vp_x="0 : 375 : 1" inkscape:vp_y="0 : 1000 : 0" inkscape:vp_z="1000 : 375 : 1" inkscape:persp3d-origin="500 : 250 : 1" id="perspective24"/>
    <linearGradient id="linearGradient1549">
      <stop id="stop1550" offset="0.0000000" style="stop-color:#e1a547;stop-opacity:1.0000000;"/>
      <stop id="stop1552" offset="0.50000000" style="stop-color:#cdb250;stop-opacity:1.0000000;"/>
      <stop id="stop1551" offset="1.0000000" style="stop-color:#ffaaaa;stop-opacity:1.0000000;"/>
    </linearGradient>
    <linearGradient id="linearGradient1546">
      <stop id="stop1547" offset="0" style="stop-color:#000;stop-opacity:1;"/>
      <stop id="stop1548" offset="1" style="stop-color:#fff;stop-opacity:1;"/>
    </linearGradient>
    <linearGradient id="linearGradient1541">
      <stop id="stop1542" offset="0" style="stop-color:#000;stop-opacity:1;"/>
      <stop id="stop1543" offset="1" style="stop-color:#fff;stop-opacity:1;"/>
    </linearGradient>
    <inkscape:perspective id="perspective3614" inkscape:persp3d-origin="0.5 : 0.33333333 : 1" inkscape:vp_z="1 : 0.5 : 1" inkscape:vp_y="0 : 1000 : 0" inkscape:vp_x="0 : 0.5 : 1" sodipodi:type="inkscape:persp3d"/>
    <inkscape:perspective id="perspective3636" inkscape:persp3d-origin="0.5 : 0.33333333 : 1" inkscape:vp_z="1 : 0.5 : 1" inkscape:vp_y="0 : 1000 : 0" inkscape:vp_x="0 : 0.5 : 1" sodipodi:type="inkscape:persp3d"/>
    <inkscape:perspective id="perspective3658" inkscape:persp3d-origin="0.5 : 0.33333333 : 1" inkscape:vp_z="1 : 0.5 : 1" inkscape:vp_y="0 : 1000 : 0" inkscape:vp_x="0 : 0.5 : 1" sodipodi:type="inkscape:persp3d"/>
    <inkscape:perspective id="perspective3658-0" inkscape:persp3d-origin="0.5 : 0.33333333 : 1" inkscape:vp_z="1 : 0.5 : 1" inkscape:vp_y="0 : 1000 : 0" inkscape:vp_x="0 : 0.5 : 1" sodipodi:type="inkscape:persp3d"/>
    <inkscape:perspective id="perspective3691" inkscape:persp3d-origin="0.5 : 0.33333333 : 1" inkscape:vp_z="1 : 0.5 : 1" inkscape:vp_y="0 : 1000 : 0" inkscape:vp_x="0 : 0.5 : 1" sodipodi:type="inkscape:persp3d"/>
    <inkscape:perspective id="perspective3713" inkscape:persp3d-origin="0.5 : 0.33333333 : 1" inkscape:vp_z="1 : 0.5 : 1" inkscape:vp_y="0 : 1000 : 0" inkscape:vp_x="0 : 0.5 : 1" sodipodi:type="inkscape:persp3d"/>
    <inkscape:perspective id="perspective3713-8" inkscape:persp3d-origin="0.5 : 0.33333333 : 1" inkscape:vp_z="1 : 0.5 : 1" inkscape:vp_y="0 : 1000 : 0" inkscape:vp_x="0 : 0.5 : 1" sodipodi:type="inkscape:persp3d"/>
    <inkscape:perspective id="perspective3744" inkscape:persp3d-origin="0.5 : 0.33333333 : 1" inkscape:vp_z="1 : 0.5 : 1" inkscape:vp_y="0 : 1000 : 0" inkscape:vp_x="0 : 0.5 : 1" sodipodi:type="inkscape:persp3d"/>
    <inkscape:perspective id="perspective3744-5" inkscape:persp3d-origin="0.5 : 0.33333333 : 1" inkscape:vp_z="1 : 0.5 : 1" inkscape:vp_y="0 : 1000 : 0" inkscape:vp_x="0 : 0.5 : 1" sodipodi:type="inkscape:persp3d"/>
    <linearGradient inkscape:collect="always" xlink:href="#linearGradient4768" id="linearGradient3802" gradientUnits="userSpaceOnUse" gradientTransform="translate(-37.934629,39.997219)" x1="104.09992" y1="381.11795" x2="714.12378" y2="381.11795"/>
  </defs>
  <sodipodi:namedview bordercolor="#666666" borderopacity="1.0" id="base" inkscape:cx="514.10877" inkscape:cy="498.14129" inkscape:pageopacity="0.0000000" inkscape:pageshadow="2" inkscape:window-height="1108" inkscape:window-width="1890" inkscape:window-x="4" inkscape:window-y="4" inkscape:zoom="0.5712105" pagecolor="#ffffff" showgrid="false" inkscape:current-layer="svg1" inkscape:window-maximized="0"/>
  <path style="fill:#ffcaa1;fill-opacity:0.99899298;fill-rule:evenodd;stroke:#000000;stroke-width:3;stroke-linecap:butt;stroke-linejoin:miter;stroke-miterlimit:4;stroke-opacity:1;stroke-dasharray:none" sodipodi:nodetypes="ccccscccscccscsccc" id="path4929" d="m 67.665293,233.26321 c 53.271527,-5.42895 106.543067,-10.85789 159.814607,-16.28684 8.14342,-5.08964 16.28684,-10.17927 24.43026,-15.26891 18.66201,-7.4648 37.32401,-16.96546 55.98602,-24.43027 16.62615,-10.17927 29.9381,-22.14516 46.82466,-25.44818 19.36285,-3.78738 47.50329,-2.37517 68.20115,7.12549 43.77088,63.11151 87.54177,126.22301 131.31265,189.33452 36.30608,35.96677 72.61216,71.93354 108.91824,107.90031 15.60822,21.03717 13.74917,54.429 4.07171,69.21907 -8.30593,12.69397 -38.68125,21.03717 -58.02187,13.23306 1.35724,17.30477 -2.37516,37.66332 -11.1972,48.86052 -11.87582,7.80411 -32.91299,14.5903 -47.84259,11.19721 4.07171,14.59029 -2.69985,34.92334 -12.21513,43.77088 -9.82534,9.13584 -23.41233,14.9296 -45.80674,10.17927 -1.35724,7.4648 -1.25119,17.05046 -6.23106,21.67463 -9.27112,8.60889 -23.62815,12.25629 -36.5219,18.02455 C 266.16115,596.32403 199.99586,594.96678 108.38239,577.32271 95.149333,476.54789 80.898343,334.03803 67.665293,233.26321 z" inkscape:export-filename="/home/z/Zend/workspaces/DefaultWorkspace/Flotilla/templates/images/ico/handshake.png" inkscape:export-xdpi="3.4325387" inkscape:export-ydpi="3.4325387"/>
  <path style="fill:url(#linearGradient3802);fill-opacity:1;fill-rule:evenodd;stroke:none" sodipodi:nodetypes="ccccscccscccscszcc" id="path3183" d="m 67.665293,233.26321 c 53.271527,-5.42895 106.543067,-10.85789 159.814607,-16.28684 8.14342,-5.08964 16.28684,-10.17927 24.43026,-15.26891 18.66201,-7.4648 37.32401,-16.96546 55.98602,-24.43027 16.62615,-10.17927 29.9381,-22.14516 46.82466,-25.44818 19.36285,-3.78738 47.50329,-2.37517 68.20115,7.12549 43.77088,63.11151 87.54177,126.22301 131.31265,189.33452 36.30608,35.96677 72.61216,71.93354 108.91824,107.90031 15.60822,21.03717 13.74917,54.429 4.07171,69.21907 -8.30593,12.69397 -38.68125,21.03717 -58.02187,13.23306 1.35724,17.30477 -2.37516,37.66332 -11.1972,48.86052 -11.87582,7.80411 -32.91299,14.5903 -47.84259,11.19721 4.07171,14.59029 -2.69985,34.92334 -12.21513,43.77088 -9.82534,9.13584 -23.41233,14.9296 -45.80674,10.17927 -1.35724,7.4648 -1.25119,17.05046 -6.23106,21.67463 -9.27112,8.60889 -11.80767,22.30166 -36.5219,18.02455 C 424.9743,688.1234 199.99586,594.96678 108.38239,577.32271 95.149333,476.54789 80.898343,334.03803 67.665293,233.26321 z" inkscape:export-filename="/home/z/Zend/workspaces/DefaultWorkspace/Flotilla/templates/images/ico/handshake.png" inkscape:export-xdpi="3.4325387" inkscape:export-ydpi="3.4325387"/>
  <path style="fill:#ffd8b4;fill-opacity:1;fill-rule:evenodd;stroke:#000000;stroke-width:3;stroke-linecap:butt;stroke-linejoin:miter;stroke-miterlimit:4;stroke-opacity:1;stroke-dasharray:none" sodipodi:nodetypes="cscscsscscsssscsscssssscsc" id="path3686" d="m 228.38524,554.62803 c -7.49828,8.21241 -15.58947,30.47907 -18.71437,43.18701 -0.47401,1.92766 5.43326,-1.42147 7.19784,0 6.15304,8.41557 10.87844,16.98865 20.54013,24.77785 4.79255,3.86373 19.87522,14.09152 24.80633,12.92931 -0.5728,7.35025 1.61754,6.54711 5.16921,14.27285 3.39363,7.38196 17.42299,15.77374 23.52202,17.48363 7.72281,2.16511 21.6539,0.62683 21.6539,0.62683 0,0 0.76377,7.28348 9.53565,17.41708 6.62283,7.65093 10.19058,9.89534 19.86531,13.19626 14.49106,4.53444 17.74222,4.29169 29.84157,3.52202 12.16295,-0.77372 32.53126,-5.0852 45.4939,-6.45394 11.17058,-1.17951 22.83141,-3.18389 28.44913,-8.83522 6.52453,-6.56356 8.80657,-20.93351 -0.92843,-24.56646 -13.03491,-4.86443 -33.08849,-6.53013 -41.1914,-10.06299 4.48285,-5.58466 31.66049,-10.82471 31.84121,-16.35337 0.40747,-12.46551 -1.46669,-20.47807 -14.39356,-25.18107 -16.08902,-5.85345 -47.09036,-6.15181 -61.99542,-1.88041 1.43183,-1.57421 21.33639,-11.07831 26.3767,-16.21409 8.85071,-9.01835 4.10732,-15.52852 3.78095,-20.4367 -0.37481,-5.63679 -15.05612,-9.72492 -20.7011,-10.82397 -14.97477,-2.91554 -20.75623,-1.34574 -38.2804,3.60664 -26.53017,7.4975 -33.18517,10.23149 -50.2293,12.62665 -14.40634,2.02447 -17.04719,0.59735 -24.89194,-0.64056 -6.60889,-3.53167 -10.22034,-5.35655 -15.23139,-12.12038 -3.12037,-4.21182 -6.05872,-7.14297 -11.51654,-10.07697 z" inkscape:export-filename="/home/z/Zend/workspaces/DefaultWorkspace/Flotilla/templates/images/ico/handshake.png" inkscape:export-xdpi="3.4325387" inkscape:export-ydpi="3.4325387"/>
  <path style="fill:#8e8e8e;fill-opacity:1;fill-rule:evenodd;stroke:#000000;stroke-width:3;stroke-linecap:butt;stroke-linejoin:miter;stroke-miterlimit:4;stroke-opacity:1;stroke-dasharray:none" sodipodi:nodetypes="csssscc" id="path8038" d="m 1.5,196.61782 c 74.987323,6.78618 150.25685,11.30733 224.96198,20.35855 34.80866,4.21739 30.44076,173.50215 21.37647,257.53566 -7.22255,66.95907 -41.05593,134.06122 -70.23699,195.44208 -10.1788,21.41058 -32.91291,53.95016 -47.8426,53.95016 -15.26883,0 -85.505906,-19.67993 -128.25886,-29.5199 l 0,-497.76655 z" inkscape:export-filename="/home/z/Zend/workspaces/DefaultWorkspace/Flotilla/templates/images/ico/handshake.png" inkscape:export-xdpi="3.4325387" inkscape:export-ydpi="3.4325387"/>
  <path style="fill:#404f60;fill-opacity:1;fill-rule:evenodd;stroke:#000000;stroke-width:1pt;stroke-linecap:butt;stroke-linejoin:miter;stroke-opacity:0" id="path13008" d="m 768.10301,118.90495 -11.9596,4.77035 -4.25813,14.52113 94.47461,275.95254 12.66503,7.42439 7.23118,1.62096 7.89468,-4.5352 4.82094,-40.04442 -15.62942,-93.9214 -33.66951,-106.13301 -41.01006,-56.76615 -20.55972,-2.88919 z" inkscape:export-filename="/home/z/Zend/workspaces/DefaultWorkspace/Flotilla/templates/images/ico/handshake.png" inkscape:export-xdpi="3.4325387" inkscape:export-ydpi="3.4325387"/>
  <path style="fill:#ffd8b4;fill-opacity:1;fill-rule:nonzero;stroke:#000000;stroke-width:3;stroke-linecap:butt;stroke-linejoin:miter;stroke-miterlimit:4;stroke-opacity:1;stroke-dasharray:none" sodipodi:nodetypes="cszscscssccccccczzszcsc" id="path919" d="m 627.80523,187.35512 c -12.21513,3.05378 -32.70159,3.74978 -44.96632,2.13721 -13.40471,-1.76246 -26.4964,-4.05349 -57.07116,-9.19199 -31.1462,-5.23453 -29.08332,-7.13168 -56.94016,-3.22991 -34.29971,4.80419 -38.23369,8.96011 -63.27387,19.99495 -30.19852,20.69786 -78.03032,45.343 -87.11398,60.36268 -9.84787,16.28329 -47.86757,46.41146 -48.20688,61.34106 -8.48273,16.28684 -21.44213,31.4516 -22.56906,49.5803 -1.64722,26.49875 34.75983,17.47706 49.62532,11.4558 10.88463,-4.40881 22.02075,-8.51708 30.84279,-14.96395 21.55639,-20.85881 35.19516,-31.23486 53.05505,-57.26935 18.56968,-5.98407 29.22175,-12.68792 42.75295,-24.43026 7.34131,7.53714 18.28153,5.7171 28.50197,1.01792 -1.37964,17.39709 83.61474,54.22833 103.82861,65.14737 35.50397,37.36517 70.28815,69.69186 107.95147,106.33725 1.35723,4.07171 5.5936,11.74234 6.95084,15.81405 5.42895,-3.05378 4.0901,-5.8016 11.88118,-14.41335 7.37633,-8.15331 18.42991,-24.30751 27.03361,-28.72885 8.6037,-4.42134 64.60384,-36.06595 110.13756,-56.06754 69.33697,-30.45764 113.74002,-26.2613 135.79848,-36.12544 22.57545,-10.09532 -107.51957,-145.35139 -134.66431,-236.286247 -9.73572,5.345107 -48.82978,28.132307 -97.78441,49.818547 -38.05981,16.85999 -88.20063,33.5442 -95.76968,37.69975 z" inkscape:export-filename="/home/z/Zend/workspaces/DefaultWorkspace/Flotilla/templates/images/ico/handshake.png" inkscape:export-xdpi="3.4325387" inkscape:export-ydpi="3.4325387"/>
  <path style="fill:#ffe8ff;fill-opacity:1;fill-rule:evenodd;stroke:#000000;stroke-width:3;stroke-linecap:butt;stroke-linejoin:miter;stroke-miterlimit:4;stroke-opacity:1;stroke-dasharray:none" sodipodi:nodetypes="cccccszssssssscc" id="path9902" d="m 745.2057,136.10287 c -1.39531,-5.95459 4.06264,-18.07352 14.96636,-23.29761 C 864.65477,63.956787 996.85804,39.477086 1097.6942,2.375334 l -1.2271,354.040436 c -111.66232,25.5337 -158.58399,42.2754 -230.55807,68.39719 -2.11891,0.0764 -17.81628,-2.67206 -24.66624,-15.39423 -6.87193,-12.76298 -11.73849,-35.54894 -10.51839,-39.14737 1.22009,-3.59843 2.41308,-4.34944 3.57944,-0.59297 1.20994,3.89686 3.83459,24.25075 9.27193,32.61454 6.77947,10.42827 16.54443,8.70113 17.30657,8.38854 5.90532,-2.42214 8.29413,-15.56939 6.74015,-26.7528 -6.59803,-47.48351 -12.99586,-96.88759 -28.61343,-142.11251 -14.18587,-41.07902 -28.55401,-97.34401 -60.7969,-116.7993 -4.66603,-2.81547 -12.47906,-4.70067 -17.50094,-2.89118 -3.9674,1.42953 -7.85931,6.57241 -9.46694,12.60824 l -6.03858,1.36895 z" inkscape:export-filename="/home/z/Zend/workspaces/DefaultWorkspace/Flotilla/templates/images/ico/handshake.png" inkscape:export-xdpi="3.4325387" inkscape:export-ydpi="3.4325387"/>
  <path style="fill:none;stroke:#000000;stroke-width:3;stroke-linecap:butt;stroke-linejoin:miter;stroke-miterlimit:4;stroke-opacity:1;stroke-dasharray:none" d="m 262.69854,635.22845 c 0,0 38.15334,-8.42856 66.31507,-16.99952 24.62671,-7.49509 19.01069,-5.49513 44.56549,-17.04811" id="path3604" sodipodi:nodetypes="css"/>
  <path style="fill:none;stroke:#000000;stroke-width:3;stroke-linecap:butt;stroke-linejoin:miter;stroke-miterlimit:4;stroke-opacity:1;stroke-dasharray:none" d="m 313.37921,668.17498 c 0,0 30.3338,-5.87366 56.46623,-10.41068 20.47648,-3.55505 3.81835,-1.37255 39.32661,-5.8621" id="path3604-1" sodipodi:nodetypes="css"/>
  <path style="fill:none;stroke:#000000;stroke-width:3;stroke-linecap:butt;stroke-linejoin:miter;stroke-miterlimit:4;stroke-opacity:1;stroke-dasharray:none" d="m 515.28529,461.71317 c 0,0 29.61934,23.59668 50.24788,38.99522 22.95298,17.13365 12.35364,16.76357 42.15787,36.58023" id="path3604-1-7" sodipodi:nodetypes="css"/>
  <path style="fill:none;stroke:#000000;stroke-width:3;stroke-linecap:butt;stroke-linejoin:miter;stroke-miterlimit:4;stroke-opacity:1;stroke-dasharray:none" d="m 459.44083,523.05392 c 0,0 29.61934,23.59668 50.24788,38.99522 22.95298,17.13365 12.35364,16.76357 42.15787,36.58023" id="path3604-1-7-4" sodipodi:nodetypes="css"/>
  <path style="fill:none;stroke:#000000;stroke-width:3;stroke-linecap:butt;stroke-linejoin:miter;stroke-miterlimit:4;stroke-opacity:1;stroke-dasharray:none" d="m 412.23936,580.15248 c 0,0 23.02456,15.34958 41.11211,33.66602 21.43035,21.70154 16.16021,10.67306 39.87393,38.10286" id="path3604-1-7-9" sodipodi:nodetypes="css"/>
  <path style="fill:#ff0000;fill-opacity:1;stroke:#000000;stroke-width:1px;stroke-linecap:butt;stroke-linejoin:miter;stroke-opacity:1" d="m 244.07657,375.06551 0,0 m 1.62477,11.06381 c 3.91893,1.2967 6.97888,3.23481 13.0754,0.69632 6.09652,-2.53849 14.1586,-10.98644 20.65762,-18.25916 6.49902,-7.27272 16.71178,-21.97289 18.25916,-25.84135 1.54739,-3.86847 4.48742,-10.21275 2.63056,-12.22436 -1.85686,-2.0116 -22.90132,-3.86846 -25.99609,-3.24951 -3.09478,0.61896 -7.50483,0.46422 -8.12378,1.23792 -0.61896,0.77369 -10.85553,16.63002 -13.46226,22.205 -2.60674,5.57497 -2.62587,5.32004 -3.79111,9.82589 -1.16523,4.50584 -4.4808,11.51633 -4.33268,14.54542 0.14812,3.02909 -2.83575,9.76713 1.08318,11.06383 z" id="path3681" sodipodi:nodetypes="czczzsssszzzz"/>
  <path style="fill:#ff0000;fill-opacity:1;stroke:#000000;stroke-width:1px;stroke-linecap:butt;stroke-linejoin:miter;stroke-opacity:1" d="m 397.79408,580.98054 0,0 m 0.49167,-10.61698 c -1.31749,-3.09518 -1.06806,-5.30414 -5.70805,-6.5821 -8.07565,-2.22422 -16.14133,0.39219 -25.12906,0.003 -8.98771,-0.38954 -23.05358,4.06735 -26.83268,5.8217 -3.77912,1.75435 -6.42261,3.20907 -6.81612,8.33096 -0.36484,4.74865 1.92402,10.35076 3.51931,13.73886 2.0912,4.4413 5.41217,8.37695 8.00398,9.03902 3.84449,0.98206 13.9177,-1.91722 22.93251,-5.37752 7.5373,-2.89317 6.74024,-2.07262 10.777,-3.98605 4.06621,-1.9274 8.21148,-3.17842 10.59543,-5.66309 2.38394,-2.48468 9.78847,-4.39264 8.98593,-12.15135 l -0.32825,-3.17343 z" id="path3681-4" sodipodi:nodetypes="czcssssssszzzc"/>
  <path style="fill:#ff0000;fill-opacity:1;stroke:#000000;stroke-width:1px;stroke-linecap:butt;stroke-linejoin:miter;stroke-opacity:1" d="m 440.34319,637.59341 0,0 m 5.47295,-8.59985 c 0.9698,-2.50761 2.02398,-11.66232 -2.42802,-14.31496 -7.74616,-4.6154 -17.58131,-2.50809 -27.4582,-2.70546 -8.99443,-0.17584 -25.88545,3.39625 -29.91223,4.4664 -4.0268,1.06975 -6.82117,4.03891 -7.32531,6.72969 -0.50417,2.69078 2.20744,12.34777 3.66605,15.14656 2.14723,4.1201 8.79925,5.65303 9.78947,5.68727 0.99022,0.0343 8.26473,0.51399 17.74424,-1.32431 7.92584,-1.53701 6.18439,-1.00063 9.86752,-2.08139 3.68313,-1.08076 0.39161,-0.11941 6.96319,-2.40888 6.57158,-2.28947 18.1235,-6.6873 19.09329,-9.19492 z" id="path3681-4-4" sodipodi:nodetypes="czcssssssszzz" inkscape:transform-center-x="-5.2520043"/>
  <path style="fill:#ff0000;fill-opacity:1;stroke:#000000;stroke-width:0.79146171px;stroke-linecap:butt;stroke-linejoin:miter;stroke-opacity:1" d="m 461.36551,685.88403 0,0 m 0.33141,-7.39991 c 0.92834,-2.13274 2.93439,-4.27383 -0.73906,-9.14029 -3.67346,-4.86647 -9.34928,-4.52474 -17.61946,-4.47721 -7.39329,0.0425 -23.49032,1.71453 -26.86008,2.46674 -3.36976,0.7522 -6.15112,4.35187 -6.65061,6.3773 -0.4995,2.02543 1.73173,11.48863 2.85565,13.62284 1.65453,3.14176 7.71122,3.67512 8.53084,3.71471 0.81963,0.0396 6.84803,-0.48795 14.76017,-1.74509 6.61537,-1.05111 4.63473,-0.60263 8.2411,-1.43538 3.63269,-0.83883 4.78591,-1.25078 8.7002,-2.87883 3.91431,-1.62805 7.85291,-4.37206 8.78125,-6.50479 z" id="path3681-4-5" sodipodi:nodetypes="czczsssssszzz"/>
  <metadata>
    <rdf:RDF>
      <cc:Work>
        <dc:format>image/svg+xml</dc:format>
        <dc:type rdf:resource="http://purl.org/dc/dcmitype/StillImage"/>
        <cc:license rdf:resource="http://creativecommons.org/licenses/publicdomain/"/>
        <dc:publisher>
          <cc:Agent rdf:about="http://openclipart.org/">
            <dc:title>Open Clip Art Library</dc:title>
          </cc:Agent>
        </dc:publisher>
        <dc:title>Handshake with Black Outline (white man and woman)</dc:title>
        <dc:date>2010-04-25T15:47:45</dc:date>
        <dc:description/>
        <dc:source>http://openclipart.org/detail/57085/handshake-with-black-outline-(white-man-and-woman)-by-palomaironique</dc:source>
        <dc:creator>
          <cc:Agent>
            <dc:title>palomaironique</dc:title>
          </cc:Agent>
        </dc:creator>
        <dc:subject>
          <rdf:Bag>
            <rdf:li>Frau</rdf:li>
            <rdf:li>Freunde</rdf:li>
            <rdf:li>Geschäftspartner</rdf:li>
            <rdf:li>Handschlag</rdf:li>
            <rdf:li>Hände</rdf:li>
            <rdf:li>Händedruck</rdf:li>
            <rdf:li>Mann</rdf:li>
            <rdf:li>Menschen</rdf:li>
            <rdf:li>People</rdf:li>
            <rdf:li>Umriss</rdf:li>
            <rdf:li>amici</rdf:li>
            <rdf:li>amis</rdf:li>
            <rdf:li>bianchi</rdf:li>
            <rdf:li>black</rdf:li>
            <rdf:li>blanc</rdf:li>
            <rdf:li>blanche</rdf:li>
            <rdf:li>bord</rdf:li>
            <rdf:li>bordo</rdf:li>
            <rdf:li>business</rdf:li>
            <rdf:li>clip art</rdf:li>
            <rdf:li>clipart</rdf:li>
            <rdf:li>contact</rdf:li>
            <rdf:li>contatto</rdf:li>
            <rdf:li>contorno</rdf:li>
            <rdf:li>contour</rdf:li>
            <rdf:li>donna</rdf:li>
            <rdf:li>entreprises</rdf:li>
            <rdf:li>femme</rdf:li>
            <rdf:li>friends</rdf:li>
            <rdf:li>gens</rdf:li>
            <rdf:li>hands</rdf:li>
            <rdf:li>handshake</rdf:li>
            <rdf:li>homme</rdf:li>
            <rdf:li>lavoro</rdf:li>
            <rdf:li>main</rdf:li>
            <rdf:li>main</rdf:li>
            <rdf:li>mains</rdf:li>
            <rdf:li>mani</rdf:li>
            <rdf:li>mani</rdf:li>
            <rdf:li>mano</rdf:li>
            <rdf:li>mano</rdf:li>
            <rdf:li>nero</rdf:li>
            <rdf:li>noir</rdf:li>
            <rdf:li>outline</rdf:li>
            <rdf:li>persone</rdf:li>
            <rdf:li>poignée</rdf:li>
            <rdf:li>prise</rdf:li>
            <rdf:li>remix</rdf:li>
            <rdf:li>schwarz</rdf:li>
            <rdf:li>serrement</rdf:li>
            <rdf:li>stretta</rdf:li>
            <rdf:li>uomini</rdf:li>
            <rdf:li>uomo</rdf:li>
            <rdf:li>weisse</rdf:li>
            <rdf:li>weiße</rdf:li>
          </rdf:Bag>
        </dc:subject>
      </cc:Work>
      <cc:License rdf:about="http://creativecommons.org/licenses/publicdomain/">
        <cc:permits rdf:resource="http://creativecommons.org/ns#Reproduction"/>
        <cc:permits rdf:resource="http://creativecommons.org/ns#Distribution"/>
        <cc:permits rdf:resource="http://creativecommons.org/ns#DerivativeWorks"/>
      </cc:License>
    </rdf:RDF>
  </metadata>
</svg>
